<svg width="638" height="270" viewBox="0 0 638 270" fill="none" xmlns="http://www.w3.org/2000/svg">
<path d="M336.933 224.789C333.304 222.907 332.825 215.61 335.016 211.525C336.804 208.165 340.166 205.283 344.601 203.31L516.239 114.822C344.376 158.815 177.129 210.519 15.6339 269.583C11.3891 271.144 8.10289 263.112 9.88294 257.742C11.2905 253.518 14.8793 249.763 20.0155 247.14C53.2431 227.742 86.9043 209.812 120.999 193.35C139.827 184.171 158.722 175.68 177.687 167.052C297.635 112.436 417.925 57.7275 541.433 20.1845C360.21 42.8572 180.699 87.2386 5.36435 152.549C1.5304 153.971 -1.48199 146.353 0.777302 141.717C1.49102 140.01 2.76522 138.432 4.50659 137.098C6.24796 135.764 8.41241 134.707 10.8414 134.007C211.85 61.6286 418.267 15.2278 626.054 0.219796C627.994 -0.140402 630.058 -0.0560702 631.918 0.459418C633.778 0.974907 635.329 1.89203 636.323 3.06534C638.993 6.27806 638.446 13.8509 634.886 14.264C530.821 27.069 430.317 70.2112 330.84 113.262C248.204 148.877 165.637 184.722 84.8504 227.313L328.169 153.88C400.878 131.62 473.723 109.819 547.663 97.4275C549.822 96.7543 552.261 96.6013 554.569 96.9943C556.877 97.3873 558.911 98.3023 560.329 99.5846C563.889 103.027 564.163 112.022 559.918 113.675C482.251 144.663 409.966 181.345 344.395 223.045C342.068 224.514 339.397 226.028 336.933 224.789Z" fill="#21453E"/>
</svg>
